<?xml version="1.0" standalone="no"?>
<!DOCTYPE svg PUBLIC "-//W3C//DTD SVG 20010904//EN"
 "http://www.w3.org/TR/2001/REC-SVG-20010904/DTD/svg10.dtd">
<svg version="1.0" xmlns="http://www.w3.org/2000/svg"
 width="348.000000pt" height="228.000000pt" viewBox="0 0 348.000000 228.000000"
 preserveAspectRatio="xMidYMid meet">

<g transform="translate(0.000000,228.000000) scale(0.100000,-0.100000)"
fill="#000000" stroke="none">
<path d="M1515 1985 c-356 -67 -682 -291 -887 -611 -34 -54 -90 -165 -85 -170
2 -2 27 24 55 59 220 272 559 472 897 532 543 96 1102 -113 1438 -535 60 -75
66 -69 21 21 -51 101 -152 238 -249 334 -195 196 -426 318 -694 369 -102 20
-393 20 -496 1z"/>
<path d="M1705 1743 c-209 -18 -418 -169 -507 -365 -47 -103 -64 -277 -38
-390 50 -221 236 -408 460 -464 86 -22 249 -15 341 15 87 28 202 103 266 175
59 67 116 174 138 261 18 69 20 211 4 287 -35 168 -171 340 -330 416 -112 53
-224 75 -334 65z m228 -103 c164 -51 306 -202 352 -376 17 -65 20 -197 6 -259
-26 -108 -236 -189 -353 -137 -49 21 -128 87 -128 106 0 6 32 29 71 51 107 60
132 101 87 142 -13 12 -81 56 -153 99 -259 154 -275 151 -275 -49 l0 -102 -46
-29 c-56 -36 -114 -120 -145 -213 -24 -72 -22 -72 -68 17 -138 269 -8 617 274
732 78 32 101 36 206 37 81 1 123 -4 172 -19z"/>
<path d="M1065 1496 c-120 -84 -238 -190 -323 -290 -84 -99 -132 -161 -132
-171 0 -13 116 -128 171 -170 97 -75 235 -142 352 -169 32 -8 33 -3 6 35 -29
41 -73 143 -94 219 -12 45 -18 99 -18 175 0 131 24 231 83 344 22 41 38 76 36
78 -1 2 -38 -22 -81 -51z"/>
<path d="M2405 1494 c131 -216 128 -537 -6 -746 -17 -27 -29 -51 -27 -54 7 -7
134 34 204 66 92 41 180 104 268 192 l78 78 -20 32 c-45 71 -196 239 -274 305
-89 76 -235 183 -248 183 -5 0 7 -25 25 -56z"/>
<path d="M2591 653 c-166 -81 -358 -142 -556 -174 -105 -17 -435 -17 -540 0
-195 32 -376 88 -554 172 -57 27 -106 47 -108 45 -8 -7 158 -147 226 -191 146
-94 292 -153 472 -192 128 -27 353 -24 488 6 246 54 441 155 626 324 33 30 58
56 55 58 -3 2 -52 -19 -109 -48z"/>
</g>
</svg>
